<svg xmlns="http://www.w3.org/2000/svg" width="1200" height="630" viewBox="0 0 1200 630"><defs><radialGradient id="hearth" cx="50%" cy="55%" r="85%"><stop offset="0%" stop-color="#3a2410" stop-opacity="1"/><stop offset="55%" stop-color="#180d07" stop-opacity="1"/><stop offset="100%" stop-color="#080402" stop-opacity="1"/></radialGradient><radialGradient id="ember" cx="50%" cy="50%" r="50%"><stop offset="0%" stop-color="#D29436" stop-opacity=".45"/><stop offset="100%" stop-color="#D29436" stop-opacity="0"/></radialGradient><radialGradient id="cupGlow" cx="50%" cy="50%" r="50%"><stop offset="0%" stop-color="#D29436" stop-opacity=".55"/><stop offset="100%" stop-color="#D29436" stop-opacity="0"/></radialGradient><linearGradient id="cupBody" x1="0%" x2="0%" y1="0%" y2="100%"><stop offset="0%" stop-color="#3a2618"/><stop offset="100%" stop-color="#180d07"/></linearGradient><linearGradient id="brew" x1="0%" x2="0%" y1="0%" y2="100%"><stop offset="0%" stop-color="#6a3f18"/><stop offset="100%" stop-color="#2a1808"/></linearGradient><filter id="soft" width="200%" height="200%" x="-50%" y="-50%"><feGaussianBlur stdDeviation="60"/></filter><filter id="bloom" width="160%" height="160%" x="-30%" y="-30%"><feGaussianBlur stdDeviation="5"/></filter></defs><rect width="1200" height="630" fill="url(#hearth)"/><ellipse cx="380" cy="320" fill="url(#ember)" filter="url(#soft)" rx="520" ry="320"/><ellipse cx="930" cy="370" fill="url(#cupGlow)" filter="url(#soft)" rx="320" ry="200"/><g font-family="ui-monospace, SFMono-Regular, Menlo, Monaco, Consolas, 'Liberation Mono', 'Courier New', monospace"><circle cx="80" cy="86" r="5" fill="#D29436"/><text x="96" y="92" fill="#AF9E8A" font-size="20">late.sh</text></g><g font-family="ui-monospace, SFMono-Regular, Menlo, Monaco, Consolas, 'Liberation Mono', 'Courier New', monospace" font-weight="700"><text x="80" y="320" font-size="92"><tspan fill="#E4C44E">ssh</tspan><tspan fill="#C8B69E" dx="56">late.sh</tspan></text><rect width="22" height="80" x="715" y="247" fill="#D29436"/></g><g font-family="ui-monospace, SFMono-Regular, Menlo, Monaco, Consolas, 'Liberation Mono', 'Courier New', monospace"><text x="84" y="392" fill="#AF9E8A" font-size="28">a cozy terminal clubhouse for developers.</text><text x="84" y="430" fill="#695848" font-size="20">pour a coffee. pull up a chair. stay a while.</text></g><g transform="translate(870, 168)"><ellipse cx="120" cy="262" fill="#0a0604" opacity=".7" rx="160" ry="14"/><g fill="none" stroke="#D29436" stroke-linecap="round" stroke-width="3.6" opacity=".55"><path d="M 78 36 C 64 8, 92 -22, 78 -54 C 68 -76, 90 -98, 80 -126"/><path d="M 122 36 C 138 6, 108 -24, 130 -58 C 144 -80, 118 -100, 132 -130"/><path d="M 168 36 C 152 8, 180 -22, 164 -54 C 154 -76, 178 -98, 168 -126"/></g><ellipse cx="120" cy="252" fill="#241810" stroke="#8a7660" stroke-width="2.4" rx="148" ry="16"/><ellipse cx="120" cy="250" fill="#140a06" rx="148" ry="11"/><path fill="url(#cupBody)" stroke="#8a5a24" stroke-linejoin="round" stroke-width="2.8" d="M 28 70 L 212 70 L 200 234 C 192 250, 164 258, 120 258 C 76 258, 48 250, 40 234 Z"/><path fill="none" stroke="#8a5a24" stroke-linecap="round" stroke-width="7" d="M 212 96 C 268 100, 268 188, 204 196"/><ellipse cx="120" cy="70" fill="#0e0805" stroke="#AF9E8A" stroke-width="1.8" rx="92" ry="12"/><ellipse cx="120" cy="70" fill="url(#brew)" rx="86" ry="9"/><ellipse cx="92" cy="67" fill="#D29436" opacity=".75" rx="22" ry="3.2"/></g><g font-family="ui-monospace, SFMono-Regular, Menlo, Monaco, Consolas, 'Liberation Mono', 'Courier New', monospace"><text x="84" y="540" fill="#825826" font-size="18">// late.sh — open the terminal, you&apos;re already home</text></g></svg>